<svg width="206" height="40" viewBox="0 0 206 40" fill="none" xmlns="http://www.w3.org/2000/svg">
<path d="M38.4344 31.027L25.7647 9.06599L19.7592 6.64417L3.73707 33.1155L7.91676 37.2953L34.8141 37.2953C38.031 37.2953 40.0421 33.8135 38.4344 31.027Z" fill="#FCD53F"/>
<path d="M8.64187 37.2953C9.13535 25.2554 15.9954 14.8574 25.945 9.37845L23.2772 4.75435C22.1097 2.73059 19.4927 2.0422 17.6154 3.43327C5.04079 12.7515 1.21153 26.2337 0.0535925 33.0329C-0.342042 35.356 1.50529 37.2953 3.86181 37.2953L8.64187 37.2953Z" fill="#F3AD61"/>
<path d="M17.6693 34.5088C20.3625 34.5088 22.5456 32.3256 22.5456 29.6325C22.5456 26.9394 20.3625 24.7562 17.6693 24.7562C14.9762 24.7562 12.793 26.9394 12.793 29.6325C12.793 32.3256 14.9762 34.5088 17.6693 34.5088Z" fill="#F8312F"/>
<path d="M26.0287 23.3629C27.9523 23.3629 29.5118 21.8035 29.5118 19.8799C29.5118 17.9562 27.9523 16.3968 26.0287 16.3968C24.1051 16.3968 22.5456 17.9562 22.5456 19.8799C22.5456 21.8035 24.1051 23.3629 26.0287 23.3629Z" fill="#F8312F"/>
<path d="M32.2982 30.3291C32.2982 31.868 31.0507 33.1155 29.5118 33.1155C27.9728 33.1155 26.7253 31.868 26.7253 30.3291C26.7253 28.7901 27.9728 27.5426 29.5118 27.5426C31.0507 27.5426 32.2982 28.7901 32.2982 30.3291Z" fill="#F8312F"/>
<path d="M56.36 11.648L61.096 11.008L58.824 21.696C59.848 21.6107 60.7867 21.1627 61.64 20.352C62.5147 19.5413 63.1973 18.5387 63.688 17.344C64.1787 16.1493 64.424 14.976 64.424 13.824C64.424 12.544 64.0933 11.4987 63.432 10.688C62.7707 9.87733 61.7787 9.472 60.456 9.472C57.8533 9.472 55.816 10.1547 54.344 11.52C52.8933 12.8853 52.168 14.7947 52.168 17.248C52.168 18.0373 52.2427 18.592 52.392 18.912C52.5413 19.2107 52.616 19.3813 52.616 19.424C51.464 19.424 50.6 19.1893 50.024 18.72C49.4693 18.2293 49.192 17.4293 49.192 16.32C49.192 14.9547 49.7467 13.632 50.856 12.352C51.9867 11.0507 53.4267 10.0053 55.176 9.216C56.9253 8.40533 58.6747 8 60.424 8C62.1093 8 63.5173 8.288 64.648 8.864C65.7787 9.44 66.6107 10.208 67.144 11.168C67.6987 12.1067 67.976 13.152 67.976 14.304C67.976 15.6907 67.592 17.0453 66.824 18.368C66.0773 19.6907 65 20.7787 63.592 21.632C62.184 22.464 60.5627 22.88 58.728 22.88H58.568L56.616 32H52.008L56.36 11.648ZM72.6878 14.272C71.9838 14.272 71.3864 14.0267 70.8958 13.536C70.4051 13.0453 70.1598 12.448 70.1598 11.744C70.1598 11.04 70.4051 10.4427 70.8958 9.952C71.3864 9.44 71.9838 9.184 72.6878 9.184C73.3918 9.184 73.9891 9.44 74.4798 9.952C74.9918 10.4427 75.2478 11.04 75.2478 11.744C75.2478 12.448 74.9918 13.0453 74.4798 13.536C73.9891 14.0267 73.3918 14.272 72.6878 14.272ZM70.5118 32.192C69.4878 32.192 68.6558 31.872 68.0158 31.232C67.3971 30.592 67.0877 29.632 67.0877 28.352C67.0877 27.8187 67.1731 27.1253 67.3438 26.272L69.5198 16H74.1278L71.8238 26.88C71.7384 27.2 71.6958 27.5413 71.6958 27.904C71.6958 28.3307 71.7918 28.64 71.9838 28.832C72.1971 29.0027 72.5384 29.088 73.0078 29.088C73.3918 29.088 73.7331 29.024 74.0318 28.896C73.9464 29.9627 73.5624 30.784 72.8798 31.36C72.2184 31.9147 71.4291 32.192 70.5118 32.192ZM82.1918 17.728H80.3998C79.8024 17.728 79.3544 17.76 79.0558 17.824C78.7784 17.888 78.6398 18.0267 78.6398 18.24C78.6398 18.2827 78.6931 18.336 78.7998 18.4C78.9278 18.4427 78.9918 18.624 78.9918 18.944C78.9918 19.4987 78.8211 19.9253 78.4798 20.224C78.1384 20.5013 77.7331 20.64 77.2638 20.64C76.8584 20.64 76.5064 20.5227 76.2078 20.288C75.9304 20.032 75.7917 19.68 75.7917 19.232C75.7917 18.784 75.9411 18.304 76.2398 17.792C76.5598 17.28 76.9971 16.8533 77.5518 16.512C78.1278 16.1707 78.7784 16 79.5038 16H87.7278L79.8878 29.536C80.0158 29.536 80.2504 29.5573 80.5918 29.6C81.3171 29.6853 81.8931 29.728 82.3198 29.728C83.2371 29.728 83.7384 29.5147 83.8238 29.088C83.6318 29.0667 83.4824 29.0027 83.3758 28.896C83.2691 28.768 83.2158 28.608 83.2158 28.416C83.2158 28.0747 83.3758 27.7653 83.6958 27.488C84.0158 27.1893 84.4531 27.04 85.0078 27.04C85.4771 27.04 85.8291 27.1787 86.0638 27.456C86.2984 27.7333 86.4158 28.1067 86.4158 28.576C86.4158 29.088 86.2558 29.6107 85.9358 30.144C85.6158 30.6773 85.1571 31.1253 84.5598 31.488C83.9624 31.8293 83.2798 32 82.5118 32H74.0318L82.1918 17.728ZM95.8788 17.728H94.0868C93.4894 17.728 93.0414 17.76 92.7428 17.824C92.4654 17.888 92.3268 18.0267 92.3268 18.24C92.3268 18.2827 92.3801 18.336 92.4868 18.4C92.6148 18.4427 92.6788 18.624 92.6788 18.944C92.6788 19.4987 92.5081 19.9253 92.1668 20.224C91.8254 20.5013 91.4201 20.64 90.9508 20.64C90.5454 20.64 90.1934 20.5227 89.8948 20.288C89.6174 20.032 89.4788 19.68 89.4788 19.232C89.4788 18.784 89.6281 18.304 89.9268 17.792C90.2468 17.28 90.6841 16.8533 91.2388 16.512C91.8148 16.1707 92.4654 16 93.1908 16H101.415L93.5748 29.536C93.7028 29.536 93.9374 29.5573 94.2788 29.6C95.0041 29.6853 95.5801 29.728 96.0068 29.728C96.9241 29.728 97.4254 29.5147 97.5108 29.088C97.3188 29.0667 97.1694 29.0027 97.0628 28.896C96.9561 28.768 96.9028 28.608 96.9028 28.416C96.9028 28.0747 97.0628 27.7653 97.3828 27.488C97.7028 27.1893 98.1401 27.04 98.6948 27.04C99.1641 27.04 99.5161 27.1787 99.7508 27.456C99.9854 27.7333 100.103 28.1067 100.103 28.576C100.103 29.088 99.9428 29.6107 99.6228 30.144C99.3028 30.6773 98.8441 31.1253 98.2468 31.488C97.6494 31.8293 96.9668 32 96.1988 32H87.7188L95.8788 17.728ZM105.246 32.192C104.03 32.192 103.017 31.776 102.206 30.944C101.396 30.112 100.99 28.8107 100.99 27.04C100.99 25.4613 101.3 23.808 101.918 22.08C102.558 20.3307 103.497 18.8587 104.734 17.664C105.993 16.448 107.486 15.84 109.214 15.84C110.089 15.84 110.74 15.9893 111.166 16.288C111.593 16.5867 111.806 16.9813 111.806 17.472V17.696L112.158 16H116.766L114.462 26.88C114.377 27.2 114.334 27.5413 114.334 27.904C114.334 28.3307 114.43 28.64 114.622 28.832C114.836 29.0027 115.177 29.088 115.646 29.088C115.945 29.088 116.18 29.0453 116.35 28.96C115.881 30.1547 115.433 30.9973 115.006 31.488C114.58 31.9573 113.961 32.192 113.15 32.192C112.276 32.192 111.561 31.936 111.006 31.424C110.473 30.8907 110.142 30.1547 110.014 29.216C108.713 31.2 107.124 32.192 105.246 32.192ZM107.326 29.088C107.86 29.088 108.382 28.8427 108.894 28.352C109.428 27.84 109.79 27.1467 109.982 26.272L111.518 19.04C111.518 18.7627 111.412 18.496 111.198 18.24C110.985 17.9627 110.654 17.824 110.206 17.824C109.353 17.824 108.585 18.3253 107.902 19.328C107.22 20.3093 106.686 21.504 106.302 22.912C105.918 24.2987 105.726 25.5253 105.726 26.592C105.726 27.6587 105.876 28.3413 106.174 28.64C106.494 28.9387 106.878 29.088 107.326 29.088ZM131.217 10.144C129.703 10.72 128.529 11.616 127.697 12.832C126.865 14.0267 126.449 15.4987 126.449 17.248C126.449 18.0373 126.524 18.592 126.673 18.912C126.823 19.2107 126.897 19.3813 126.897 19.424C125.745 19.424 124.881 19.1893 124.305 18.72C123.751 18.2293 123.473 17.4293 123.473 16.32C123.473 14.9547 124.028 13.632 125.137 12.352C126.268 11.0507 127.708 10.0053 129.457 9.216C131.207 8.40533 132.956 8 134.705 8C135.004 8 135.431 8.02133 135.985 8.064L136.273 27.744L142.993 8.16H147.057L147.345 27.744L154.065 8.16H156.305L147.409 32H142.801L142.417 15.712L136.337 32H131.729L131.217 10.144ZM158.735 32.128C157.156 32.128 155.908 31.7227 154.991 30.912C154.073 30.1013 153.614 28.8213 153.614 27.072C153.614 25.6213 153.913 24.0107 154.511 22.24C155.108 20.4693 156.068 18.944 157.391 17.664C158.713 16.3627 160.377 15.712 162.383 15.712C165.113 15.712 166.479 17.4187 166.479 20.832V20.864C166.543 20.8853 166.66 20.896 166.831 20.896C167.535 20.896 168.345 20.7147 169.263 20.352C170.18 19.968 171.012 19.5093 171.759 18.976L172.047 19.84C171.428 20.5013 170.617 21.0667 169.615 21.536C168.633 21.984 167.556 22.304 166.383 22.496C166.212 24.4373 165.775 26.1333 165.071 27.584C164.367 29.0347 163.46 30.1547 162.351 30.944C161.241 31.7333 160.036 32.128 158.735 32.128ZM160.015 29.248C160.527 29.248 161.039 28.96 161.551 28.384C162.063 27.7867 162.511 26.9867 162.895 25.984C163.279 24.96 163.556 23.8293 163.727 22.592C163.151 22.464 162.863 22.016 162.863 21.248C162.863 20.3733 163.193 19.7973 163.855 19.52C163.812 18.816 163.705 18.336 163.535 18.08C163.364 17.8027 163.065 17.664 162.639 17.664C161.935 17.664 161.252 18.176 160.591 19.2C159.929 20.224 159.396 21.4507 158.991 22.88C158.585 24.3093 158.383 25.568 158.383 26.656C158.383 27.68 158.5 28.3733 158.735 28.736C158.969 29.0773 159.396 29.248 160.015 29.248ZM170.301 16H174.909L174.493 17.984C175.218 17.344 175.869 16.8533 176.445 16.512C177.042 16.1707 177.682 16 178.365 16C179.048 16 179.581 16.2347 179.965 16.704C180.37 17.1733 180.573 17.7387 180.573 18.4C180.573 19.0187 180.37 19.5627 179.965 20.032C179.56 20.5013 178.994 20.736 178.269 20.736C177.8 20.736 177.48 20.6293 177.309 20.416C177.16 20.1813 177.042 19.8507 176.957 19.424C176.893 19.1467 176.829 18.944 176.765 18.816C176.701 18.688 176.584 18.624 176.413 18.624C175.965 18.624 175.581 18.72 175.261 18.912C174.962 19.0827 174.568 19.392 174.077 19.84L171.517 32H166.909L170.301 16ZM183.324 32.192C182.3 32.192 181.468 31.872 180.828 31.232C180.21 30.592 179.9 29.632 179.9 28.352C179.9 27.8187 179.986 27.1253 180.156 26.272L183.58 10.24L188.316 9.6L184.636 26.88C184.551 27.2 184.508 27.5413 184.508 27.904C184.508 28.3307 184.604 28.64 184.796 28.832C185.01 29.0027 185.351 29.088 185.82 29.088C186.439 29.088 187.015 28.832 187.548 28.32C188.082 27.7867 188.466 27.104 188.7 26.272H190.044C189.255 28.576 188.242 30.144 187.004 30.976C185.767 31.7867 184.54 32.192 183.324 32.192ZM192.528 32.192C191.312 32.192 190.298 31.776 189.488 30.944C188.677 30.112 188.271 28.8107 188.271 27.04C188.271 25.4613 188.581 23.808 189.2 22.08C189.84 20.3307 190.778 18.8587 192.016 17.664C193.274 16.448 194.768 15.84 196.496 15.84C197.37 15.84 198.021 15.9893 198.448 16.288C198.874 16.5867 199.088 16.9813 199.088 17.472V17.6L200.656 10.24L205.392 9.6L201.712 26.88C201.626 27.2 201.584 27.5093 201.584 27.808C201.584 28.6613 202.021 29.088 202.896 29.088C203.28 29.088 203.621 29.024 203.92 28.896C203.834 29.9627 203.45 30.784 202.768 31.36C202.106 31.9147 201.317 32.192 200.4 32.192C199.546 32.192 198.821 31.9787 198.224 31.552C197.648 31.104 197.264 30.432 197.072 29.536C195.792 31.3067 194.277 32.192 192.528 32.192ZM194.608 29.088C195.077 29.088 195.546 28.8853 196.016 28.48C196.506 28.0747 196.869 27.5093 197.104 26.784L197.232 26.272L198.8 18.944C198.608 18.1973 198.17 17.824 197.488 17.824C196.634 17.824 195.866 18.3253 195.184 19.328C194.501 20.3093 193.968 21.504 193.584 22.912C193.2 24.2987 193.008 25.5253 193.008 26.592C193.008 27.6587 193.157 28.3413 193.456 28.64C193.776 28.9387 194.16 29.088 194.608 29.088Z" fill="#FC6703"/>
</svg>
